<svg id="Layer_1" data-name="Layer 1" xmlns="http://www.w3.org/2000/svg" viewBox="0 0 150 150"><defs><style>.cls-1{fill:#fcfcfc;}</style></defs><path class="cls-1" d="M36.49,89.48V69.8h6.76a8.1,8.1,0,0,1,6,2.3A8,8,0,0,1,51.54,78v3.25a7.92,7.92,0,0,1-2.34,5.92,8.14,8.14,0,0,1-6,2.29Zm3.95-16.64v13.6h2.61A4.11,4.11,0,0,0,46.37,85a5.64,5.64,0,0,0,1.21-3.74V78a5.58,5.58,0,0,0-1.21-3.71,4.11,4.11,0,0,0-3.32-1.43Z"/><path class="cls-1" d="M62,78.25l-1.45,0a2.63,2.63,0,0,0-1.44.36,2.32,2.32,0,0,0-.87,1v9.88H54.31V74.85H58L58.15,77a4.56,4.56,0,0,1,1.33-1.8,3.07,3.07,0,0,1,2.43-.59,4.7,4.7,0,0,1,.51.12Z"/><path class="cls-1" d="M68.15,71.35h-4v-3h4Zm0,18.13h-4V74.85h4Z"/><path class="cls-1" d="M75,74.85l.17,2.1A5.46,5.46,0,0,1,77,75.2a4.7,4.7,0,0,1,2.39-.62A4.42,4.42,0,0,1,82.83,76a6.44,6.44,0,0,1,1.25,4.37v9.14h-4V80.34a3,3,0,0,0-.59-2.1,2.41,2.41,0,0,0-1.8-.62,3,3,0,0,0-1.4.32,2.94,2.94,0,0,0-1,.9V89.48H71.33V74.85Z"/><path class="cls-1" d="M92.05,83.36H91v6.12H87V68.39h4v12h1l3.4-5.5h4.57l-4.68,6.63,5.39,8H96.1Z"/><path class="cls-1" d="M112.74,85.24h-6.91l-1.34,4.24h-4l6.78-19.68h4l6.74,19.68h-4Zm-5.94-3.1h5l-2.44-7.73h-.08Z"/><path class="cls-1" d="M132.77,82.57a8.38,8.38,0,0,1-1.5,5.22,5,5,0,0,1-4.19,2,4.71,4.71,0,0,1-2-.42,4.19,4.19,0,0,1-1.53-1.25v7h-3.93V74.85h3.55l.23,1.73a4.79,4.79,0,0,1,1.57-1.48,4.24,4.24,0,0,1,2.12-.52,4.88,4.88,0,0,1,4.22,2.12,9.5,9.5,0,0,1,1.5,5.59Zm-4-.3a7.24,7.24,0,0,0-.68-3.36A2.26,2.26,0,0,0,126,77.62a3.07,3.07,0,0,0-1.53.37,2.68,2.68,0,0,0-1,1v6.42a2.58,2.58,0,0,0,1,1,3.48,3.48,0,0,0,1.55.32,2.28,2.28,0,0,0,2.11-1.12,6,6,0,0,0,.66-3Z"/><path class="cls-1" d="M148.4,82.57a8.38,8.38,0,0,1-1.5,5.22,5,5,0,0,1-4.19,2,4.71,4.71,0,0,1-2-.42,4.19,4.19,0,0,1-1.53-1.25v7H135.2V74.85h3.56l.23,1.73a4.67,4.67,0,0,1,1.56-1.48,4.31,4.31,0,0,1,2.13-.52,4.88,4.88,0,0,1,4.22,2.12,9.5,9.5,0,0,1,1.5,5.59Zm-4-.3a7.11,7.11,0,0,0-.69-3.36,2.25,2.25,0,0,0-2.11-1.29,3,3,0,0,0-1.52.37,2.55,2.55,0,0,0-1,1v6.42a2.45,2.45,0,0,0,1,1,3.45,3.45,0,0,0,1.55.32,2.25,2.25,0,0,0,2.1-1.12,5.9,5.9,0,0,0,.67-3Z"/><path class="cls-1" d="M28,71.41c-.5,6.47-1.62,15.25-1.62,15.25a.86.86,0,0,1-.77.76c-.31,0-13.18,0-13.5,0-.64,0-.76-.76-.76-.76s-1-8.77-1.48-15.25a1.72,1.72,0,0,0-1.23.3,1.28,1.28,0,0,0-.32,1.08c.4,6.62,1,19.85,1,19.85a.88.88,0,0,0,1,1H27.61a.91.91,0,0,0,1-1s.59-13.23,1-19.85a1.2,1.2,0,0,0-.43-1.16A1.88,1.88,0,0,0,28,71.41Z"/><path class="cls-1" d="M29.87,62.43c-2.36-1.46-4.68,1.49-6.27,1.49a2.48,2.48,0,0,1-2.51-2.14c-.62-2.48-1.78-3.69-2.81-3.64-.83,0-1.32.77-2.43,3.68A4.23,4.23,0,0,1,14,64.19c-1.38.52-2.3-.75-4.52-1-2-.22-4.12.37-1.85,2.09a10.34,10.34,0,0,1,4,7.46c.93,8,1.24,8.72,1.45,10.64.17,1.59.5,1.94,1.87,1.92h8.14c1.37,0,1.7-.33,1.87-1.92.2-1.92.14-1.5,1.09-9.5.54-4.52.92-5.87,2.14-7.65C29.72,64,31.19,63.25,29.87,62.43ZM14.51,72.27a.78.78,0,1,1,1.55-.15l.6,4.16a.78.78,0,0,1-1.56.16Zm2,10a.78.78,0,0,1-.85-.7l-.3-1.93a.79.79,0,0,1,.7-.85.8.8,0,0,1,.86.7l.29,1.93A.77.77,0,0,1,16.52,82.23Z"/><path class="cls-1" d="M18,52.9a2,2,0,0,0-1.94,1.3,1.84,1.84,0,0,0,1.89,2.43c.6,0,1.79-.35,2.06-1.26A1.91,1.91,0,0,0,18,52.9Z"/><path class="cls-1" d="M5.07,62.91c.41,0,.94,0,1.25-1.06s-.74-1.53-1.38-1.66-1.23.5-1.44,1A1.42,1.42,0,0,0,5.07,62.91Z"/><path class="cls-1" d="M32,62.47a1.41,1.41,0,0,0,1.25-1.06,1.28,1.28,0,0,0-1.38-1.66,1.54,1.54,0,0,0-1.44,1A1.44,1.44,0,0,0,32,62.47Z"/></svg>