<?xml version="1.0" encoding="utf-8"?>
<!-- Generator: Adobe Illustrator 24.3.0, SVG Export Plug-In . SVG Version: 6.00 Build 0)  -->
<svg version="1.1" id="Capa_1" xmlns="http://www.w3.org/2000/svg" xmlns:xlink="http://www.w3.org/1999/xlink" x="0px" y="0px"
	 viewBox="0 0 50 15" style="enable-background:new 0 0 50 15;" xml:space="preserve">
<style type="text/css">
	.st0{fill:#30BE76;}
	.st1{fill:#15540E;}
	.st2{fill:#FFFFFF;}
</style>
<path class="st0" d="M11.8,12.7V6.1h2.3c0.7,0,1.5,0.3,2,0.8c0.5,0.5,0.8,1.3,0.8,2v1.1c0,0.7-0.2,1.5-0.8,2c-0.5,0.5-1.3,0.8-2,0.8
	L11.8,12.7z M13.1,7.1v4.6H14c0.4,0,0.8-0.2,1.1-0.5c0.3-0.4,0.4-0.8,0.4-1.3V8.8c0-0.4-0.1-0.9-0.4-1.2c-0.3-0.3-0.7-0.5-1.1-0.5
	L13.1,7.1z"/>
<path class="st0" d="M20.3,8.9h-0.5c-0.2,0-0.3,0-0.5,0.1c-0.1,0.1-0.2,0.2-0.3,0.4v3.3h-1.3V7.8H19l0,0.7c0.1-0.2,0.3-0.4,0.5-0.6
	c0.2-0.1,0.4-0.2,0.6-0.2h0.2h0.2L20.3,8.9z"/>
<path class="st0" d="M22.4,6.6h-1.3v-1h1.3V6.6z M22.4,12.7h-1.3V7.8h1.3V12.7z"/>
<path class="st0" d="M24.7,7.8l0.1,0.7c0.1-0.2,0.4-0.4,0.6-0.6c0.2-0.1,0.5-0.2,0.8-0.2c0.4,0,0.9,0.1,1.1,0.5
	c0.3,0.4,0.5,0.9,0.4,1.5v3.1h-1.3V9.6c0-0.3,0-0.5-0.2-0.7c-0.2-0.2-0.4-0.2-0.6-0.2c-0.2,0-0.3,0-0.5,0.1C25,8.9,24.9,9,24.8,9.1
	v3.6h-1.3V7.8H24.7z"/>
<path class="st0" d="M30.4,10.6H30v2.1h-1.3V5.6H30v4h0.3l1.2-1.8H33L31.5,10l1.8,2.7h-1.5L30.4,10.6z"/>
<path class="st0" d="M37.3,11.3H35l-0.5,1.4h-1.3l2.3-6.6h1.4l2.3,6.6h-1.3L37.3,11.3z M35.3,10.3H37l-0.8-2.6l0,0L35.3,10.3z"/>
<path class="st0" d="M44,10.4c0,0.6-0.1,1.2-0.5,1.8c-0.3,0.4-0.9,0.7-1.4,0.7c-0.2,0-0.5,0-0.7-0.1c-0.2-0.1-0.4-0.2-0.5-0.4v2.4
	h-1.3V7.8h1.2l0.1,0.6C41,8.2,41.2,8,41.4,7.9c0.2-0.1,0.5-0.2,0.7-0.2c0.6,0,1.1,0.2,1.4,0.7C43.9,9,44.1,9.6,44,10.4L44,10.4z
	 M42.7,10.3c0-0.4-0.1-0.8-0.2-1.1c-0.1-0.3-0.4-0.4-0.7-0.4c-0.2,0-0.4,0-0.5,0.1C41.1,8.9,41,9,40.9,9.2v2.2
	c0.1,0.1,0.2,0.2,0.3,0.3c0.2,0.1,0.3,0.1,0.5,0.1c0.3,0,0.6-0.1,0.7-0.4c0.2-0.3,0.2-0.7,0.2-1V10.3z"/>
<path class="st0" d="M49.3,10.4c0,0.6-0.1,1.2-0.5,1.8c-0.3,0.4-0.9,0.7-1.4,0.7c-0.2,0-0.5,0-0.7-0.1c-0.2-0.1-0.4-0.2-0.5-0.4v2.4
	h-1.3V7.8H46l0.1,0.6c0.1-0.2,0.3-0.4,0.5-0.5c0.2-0.1,0.5-0.2,0.7-0.2c0.6,0,1.1,0.2,1.4,0.7C49.1,9,49.3,9.6,49.3,10.4L49.3,10.4z
	 M48,10.3c0-0.4-0.1-0.8-0.2-1.1c-0.1-0.3-0.4-0.5-0.8-0.4c-0.2,0-0.4,0-0.5,0.1c-0.1,0.1-0.3,0.2-0.3,0.4v2.1
	c0.1,0.1,0.2,0.2,0.3,0.3c0.2,0.1,0.3,0.1,0.5,0.1c0.3,0,0.6-0.1,0.7-0.4c0.2-0.3,0.2-0.7,0.2-1L48,10.3z"/>
<path class="st1" d="M9,6.6c-0.2,2.2-0.5,5.1-0.5,5.1s0,0.2-0.3,0.3H3.6c-0.2,0-0.3-0.3-0.3-0.3S3,8.8,2.9,6.6c-0.1,0-0.3,0-0.4,0.1
	C2.4,6.8,2.3,7,2.4,7.1c0.1,2.2,0.3,6.6,0.3,6.6c0,0.2,0.1,0.3,0.3,0.3c0,0,0,0,0.1,0h5.8c0.2,0,0.3-0.1,0.3-0.3c0,0,0,0,0,0
	c0,0,0.2-4.4,0.3-6.7c0-0.1,0-0.3-0.1-0.4C9.2,6.7,9.1,6.6,9,6.6z"/>
<path class="st0" d="M9.6,3.6C8.8,3.1,8,4.1,7.5,4.1c-0.4,0-0.8-0.3-0.8-0.7C6.4,2.6,6,2.2,5.7,2.2S5.2,2.4,4.9,3.4
	C4.8,3.8,4.5,4,4.2,4.2C3.8,4.4,3.5,4,2.7,3.9S1.3,4,2.1,4.6c0.8,0.6,1.3,1.5,1.3,2.5c0.3,2.7,0.4,2.9,0.5,3.6s0.2,0.6,0.6,0.6h2.7
	c0.5,0,0.6-0.1,0.6-0.6s0-0.5,0.4-3.2c0-0.9,0.2-1.8,0.7-2.6C9.5,4.1,10,3.9,9.6,3.6z"/>
<path class="st2" d="M5.1,8.3c0,0.1-0.1,0.3-0.2,0.3c0,0,0,0,0,0l0,0c-0.1,0-0.3-0.1-0.3-0.2L4.4,6.9c0-0.1,0.1-0.3,0.2-0.3l0,0
	c0.1,0,0.3,0.1,0.3,0.2L5.1,8.3z"/>
<path class="st2" d="M5.3,10c0,0.1-0.1,0.3-0.2,0.3c0,0,0,0,0,0l0,0c-0.1,0-0.3-0.1-0.3-0.2c0,0,0,0,0,0L4.7,9.4
	c0-0.2,0.1-0.3,0.3-0.3c0,0,0,0,0,0l0,0c0.1,0,0.3,0.1,0.3,0.2c0,0,0,0,0,0L5.3,10z"/>
<path class="st0" d="M5.6,0.4C5.3,0.4,5,0.6,4.9,0.9C4.8,1.2,5,1.5,5.3,1.7c0.1,0,0.2,0,0.2,0c0.3,0,0.6-0.2,0.7-0.4
	c0.1-0.3-0.1-0.7-0.4-0.8C5.8,0.4,5.7,0.4,5.6,0.4z"/>
<path class="st0" d="M1.3,3.8c0.1,0,0.3,0,0.4-0.3S1.4,2.9,1.2,2.9S0.8,3,0.7,3.2C0.7,3.5,0.8,3.7,1.1,3.8C1.1,3.8,1.2,3.8,1.3,3.8z
	"/>
<path class="st0" d="M10.3,3.6c0.2,0,0.4-0.2,0.4-0.4c0.1-0.2-0.1-0.5-0.3-0.5c-0.1,0-0.1,0-0.2,0c-0.2,0-0.4,0.1-0.5,0.3
	c-0.1,0.3,0.1,0.5,0.4,0.6C10.2,3.6,10.3,3.6,10.3,3.6z"/>
</svg>
