<svg id="Capa_1" data-name="Capa 1" xmlns="http://www.w3.org/2000/svg" xmlns:xlink="http://www.w3.org/1999/xlink" viewBox="0 0 50 50"><defs><style>.cls-1{fill:none;}.cls-2{fill:#51c57f;}.cls-3{clip-path:url(#clip-path);}.cls-4{clip-path:url(#clip-path-2);}.cls-5{clip-path:url(#clip-path-3);}.cls-6{clip-path:url(#clip-path-4);}.cls-7{clip-path:url(#clip-path-5);}.cls-8{clip-path:url(#clip-path-6);}.cls-9{fill:#fff;}</style><clipPath id="clip-path"><path class="cls-1" d="M63,321.81H61.66a3.57,3.57,0,0,0,.85-1.1l.05-.09v-.53H65.1A2.16,2.16,0,0,1,63,321.81Zm-4.3,0H57.17a2.67,2.67,0,0,1-2.35-1.4v-4.24c.48.24,1,.54,1.5.84a7.12,7.12,0,0,0,3.23,1.36,5.12,5.12,0,0,0,2.15-.54v2.58a2.67,2.67,0,0,1-2.35,1.4Zm-15.06,0v-1.89a16.35,16.35,0,0,0-.86-5.24,3.49,3.49,0,0,1,.44-.2l2.14-.84V314a1.4,1.4,0,0,0,1.13,1.37,10.84,10.84,0,0,0,2.44,3.77l.31.3.3-.3A10.84,10.84,0,0,0,52,315.33,1.4,1.4,0,0,0,53.1,314v-.32L54,314v6.64l0,.09a3.59,3.59,0,0,0,.86,1.1Zm-3.44-2.92A4.7,4.7,0,0,1,42,315.15a15.4,15.4,0,0,1,.75,4.77v1.89H40.19Zm6-5.58a.54.54,0,0,1,.53-.54.52.52,0,0,1,.32.11l.87.67v.17l-.87.66a.46.46,0,0,1-.32.11.53.53,0,0,1-.53-.53Zm2.88-1.41.13,0,.12,0a7,7,0,0,0,1.19-.5,2.08,2.08,0,0,0,.27.84l-.66.5a1.28,1.28,0,0,0-.92-.4,1.31,1.31,0,0,0-.93.4l-.66-.5a2.08,2.08,0,0,0,.27-.84A7,7,0,0,0,49.1,311.9Zm-3.75-6.2V304a1.3,1.3,0,0,1,.38-.91,1.28,1.28,0,0,1,.9-.37,1.32,1.32,0,0,1,.44.08,16.47,16.47,0,0,0,5.43.92h.17a.44.44,0,0,1,.43.43v1.53A5.57,5.57,0,0,1,49.23,311,5.56,5.56,0,0,1,45.35,305.7ZM44.92,308a1.29,1.29,0,0,1-.43-2.5v.16a6.49,6.49,0,0,0,.44,2.34Zm4.31-11.18a5.6,5.6,0,0,1,5.59,5.59V305a2,2,0,0,0-.86-.39v-.48a1.29,1.29,0,0,0-1.29-1.29H52.5a15.55,15.55,0,0,1-5.14-.87,2.14,2.14,0,0,0-2.87,2v.63a2.16,2.16,0,0,0-.86.39v-2.59A5.6,5.6,0,0,1,49.23,296.86ZM53.53,308h0A6.49,6.49,0,0,0,54,305.7v-.16a1.29,1.29,0,0,1-.43,2.5Zm-4.73,5.59a.43.43,0,0,1,.43-.43.44.44,0,0,1,.43.43.43.43,0,0,1-.43.43A.43.43,0,0,1,48.8,313.63Zm.43,1.29a1.28,1.28,0,0,0,.92-.39l.71.54a1.64,1.64,0,0,0,.22.14,9.9,9.9,0,0,1-1.85,3,9.93,9.93,0,0,1-1.86-3,1.64,1.64,0,0,0,.22-.14l.71-.54A1.3,1.3,0,0,0,49.23,314.92Zm3-1.61V314a.54.54,0,0,1-.54.53.53.53,0,0,1-.32-.1l-.87-.67s0-.06,0-.09,0-.05,0-.08l.87-.67a.54.54,0,0,1,.86.43Zm9.46,3.34c0,.41-1.26.86-2.15.86a4.67,4.67,0,0,1-2-.78,3.69,3.69,0,0,1,2-1C60.44,315.78,61.7,316.23,61.7,316.65Zm0-3.45v2.26a5.12,5.12,0,0,0-2.15-.54,4.66,4.66,0,0,0-2.8,1.35,14.59,14.59,0,0,0-1.93-1v-2Zm-3.44-3.44h6.88v9.47H62.56v-6.89h-4.3Zm1.47-2.33,1.11-.37V304.6h1.72v2.46l1.11.37a2.15,2.15,0,0,1,1.39,1.47H58.34A2.15,2.15,0,0,1,59.73,307.43Zm.25-4.55h3.44v.86H60Zm4,3.74-.52-.18V304.6a.86.86,0,0,0,.86-.86v-.86a.87.87,0,0,0-.86-.86H60a.86.86,0,0,0-.86.86v.86a.85.85,0,0,0,.86.86v1.84l-.52.18a3,3,0,0,0-2.06,2.85v2.87H54v.71l-1-.4a1.42,1.42,0,0,0-1.23-.74h-.08a1.34,1.34,0,0,1-.24-.75v-.3a6.28,6.28,0,0,0,1.73-2h.42a2.15,2.15,0,0,0,2.15-2.15v-4.3a6.46,6.46,0,0,0-12.91,0v4.3a2.15,2.15,0,0,0,2.15,2.15h.42a6.19,6.19,0,0,0,1.74,2v.3a1.27,1.27,0,0,1-.25.75h-.08a1.39,1.39,0,0,0-1.22.74l-2.63,1a5.57,5.57,0,0,0-3.57,5.22v3.78H63a3,3,0,0,0,3-3V309.47A3,3,0,0,0,63.94,306.62Z"/></clipPath><clipPath id="clip-path-2"><path class="cls-2" d="M-198.84,36.9h-1.7a4.47,4.47,0,0,0,1.1-1.4l.05-.11v-.68h3.24A2.75,2.75,0,0,1-198.84,36.9Zm-5.48,0h-1.94a3.4,3.4,0,0,1-3-1.78v-5.4c.62.3,1.27.69,1.91,1.07,1.48.89,2.88,1.73,4.12,1.73a6.63,6.63,0,0,0,2.75-.68v3.28a3.4,3.4,0,0,1-3,1.78Zm-19.2,0V34.5a20.85,20.85,0,0,0-1.1-6.69,5.62,5.62,0,0,1,.56-.25l2.74-1.07v.41a1.78,1.78,0,0,0,1.44,1.74,13.57,13.57,0,0,0,3.11,4.81l.38.39.39-.39a13.79,13.79,0,0,0,3.11-4.81,1.78,1.78,0,0,0,1.44-1.74v-.41l1.1.43v8.47l0,.11a4.47,4.47,0,0,0,1.1,1.4Zm-4.38-3.72a6,6,0,0,1,2.33-4.77,20,20,0,0,1,1,6.09v2.4h-3.29Zm7.67-7.11a.68.68,0,0,1,.69-.68.7.7,0,0,1,.41.14l1.11.84s0,.08,0,.11,0,.08,0,.12l-1.11.84a.7.7,0,0,1-.41.14.69.69,0,0,1-.69-.68Zm3.68-1.8.16,0,.16,0a8.52,8.52,0,0,0,1.52-.63,2.81,2.81,0,0,0,.34,1.06l-.84.64a1.62,1.62,0,0,0-1.18-.5,1.64,1.64,0,0,0-1.18.5l-.84-.64a2.66,2.66,0,0,0,.35-1.06A8.74,8.74,0,0,0-216.55,24.27Zm-4.77-7.9V14.23a1.63,1.63,0,0,1,.48-1.16,1.62,1.62,0,0,1,1.15-.48,1.89,1.89,0,0,1,.56.1,20.92,20.92,0,0,0,6.92,1.18h.21a.55.55,0,0,1,.55.55v2a7.1,7.1,0,0,1-4.94,6.8A7.1,7.1,0,0,1-221.32,16.37Zm-.55,3a1.64,1.64,0,0,1-1.65-1.64,1.63,1.63,0,0,1,1.1-1.54v.2a8.22,8.22,0,0,0,.56,3Zm5.48-14.25a7.13,7.13,0,0,1,7.13,7.13v3.3a2.88,2.88,0,0,0-1.09-.51v-.6A1.65,1.65,0,0,0-212,12.77h-.21a19.78,19.78,0,0,1-6.56-1.11,2.77,2.77,0,0,0-2.85.63,2.76,2.76,0,0,0-.8,1.94V15a2.85,2.85,0,0,0-1.1.51v-3.3A7.13,7.13,0,0,1-216.39,5.1Zm5.49,14.25h0a8.18,8.18,0,0,0,.56-3v-.2a1.64,1.64,0,0,1,1.09,1.54A1.64,1.64,0,0,1-210.9,19.35Zm-6,7.13a.55.55,0,0,1,.55-.54.54.54,0,0,1,.55.54.54.54,0,0,1-.55.55A.55.55,0,0,1-216.94,26.48Zm.55,1.65a1.62,1.62,0,0,0,1.18-.5l.9.68a1.75,1.75,0,0,0,.29.18,12.62,12.62,0,0,1-2.37,3.78,12.59,12.59,0,0,1-2.36-3.78,1.67,1.67,0,0,0,.28-.18l.9-.68A1.64,1.64,0,0,0-216.39,28.13Zm3.84-2.06v.83a.68.68,0,0,1-.68.68.66.66,0,0,1-.41-.14l-1.11-.84s0-.08,0-.12,0-.07,0-.11l1.11-.84a.66.66,0,0,1,.41-.14A.67.67,0,0,1-212.55,26.07Zm12.07,4.25c0,.53-1.61,1.1-2.75,1.1a6,6,0,0,1-2.56-1,4.61,4.61,0,0,1,2.56-1.21C-202.09,29.23-200.48,29.79-200.48,30.32Zm0-4.38v2.87a6.47,6.47,0,0,0-2.75-.68,6,6,0,0,0-3.57,1.71,21.18,21.18,0,0,0-2.46-1.32V25.94Zm-4.39-4.39h8.77V33.61h-3.29V24.84h-5.48Zm1.87-3,1.42-.47V15h2.19v3.14l1.42.47a2.74,2.74,0,0,1,1.77,1.87h-8.57A2.74,2.74,0,0,1-203,18.58Zm.32-5.81h4.39v1.1h-4.39Zm5.05,4.77-.66-.23V15a1.1,1.1,0,0,0,1.1-1.1v-1.1a1.1,1.1,0,0,0-1.1-1.09h-4.39a1.09,1.09,0,0,0-1.09,1.09v1.1a1.09,1.09,0,0,0,1.09,1.1v2.34l-.66.23A3.83,3.83,0,0,0-206,21.18v3.66h-4.38v.9l-1.32-.51a1.76,1.76,0,0,0-1.56-.94h-.1a1.65,1.65,0,0,1-.32-1V23a8,8,0,0,0,2.22-2.51h.53a2.74,2.74,0,0,0,2.74-2.74V12.23A8.24,8.24,0,0,0-216.39,4a8.23,8.23,0,0,0-8.22,8.23v5.48a2.74,2.74,0,0,0,2.74,2.74h.52A8.21,8.21,0,0,0-219.13,23v.38a1.64,1.64,0,0,1-.31,1h-.1a1.76,1.76,0,0,0-1.56.94l-3.35,1.3A7.09,7.09,0,0,0-229,33.18V38h30.16A3.84,3.84,0,0,0-195,34.16v-13A3.82,3.82,0,0,0-197.63,17.54Z"/></clipPath><clipPath id="clip-path-3"><path class="cls-1" d="M175.68,310.09h0a4,4,0,0,1-3.17-1.53h0l-3.2-4h8.32a.5.5,0,1,0,0-1H168.5l-1.3-1.63h16.94l-5.29,6.62A4,4,0,0,1,175.68,310.09Zm2.92,10.25h-5.86l2.13-.89a.48.48,0,0,0,.3-.45v-6.91h0a.5.5,0,0,0-.1-.31l-.69-.86a5.07,5.07,0,0,0,1.29.17h0a5,5,0,0,0,1.29-.17l-.7.88a.49.49,0,0,0-.11.31V319a.5.5,0,0,0,.31.46ZM166.88,305.1h0c-.51,0-1.23-.62-1.87-1.62a5.93,5.93,0,0,1-1-2.57,2.24,2.24,0,0,1,1.4-2.15h0l.21-.09h0a3.94,3.94,0,0,1,1.25-.18h0a4,4,0,0,1,1.25.18h0a2.6,2.6,0,0,1,1,.67,2,2,0,0,1,.38.58v0a4.56,4.56,0,0,0-.23,1h-3.17a.5.5,0,0,0-.45.28.49.49,0,0,0,.06.52l2.18,2.73A1.75,1.75,0,0,1,166.88,305.1Zm-2.14-7.88a1,1,0,0,1,1.17-.1.77.77,0,0,1,.42.41,3.84,3.84,0,0,0-1,.2l-.09-.11a1.42,1.42,0,0,0-.51-.39Zm3.1-.1a1,1,0,0,1,1.17.1h0a1.42,1.42,0,0,0-.51.39l-.09.11a3.93,3.93,0,0,0-1-.2A.77.77,0,0,1,167.84,297.12Zm3.16,2.25,1.57,1.58h-2.23A3.38,3.38,0,0,1,171,299.37Zm2.27-1.36v2.24l-1.57-1.58A3.49,3.49,0,0,1,173.27,298Zm1,0a3.49,3.49,0,0,1,1.58.66l-1.58,1.58ZM177.2,301H175l1.58-1.58A3.49,3.49,0,0,1,177.2,301Zm2.42,8.23h0l5.93-7.43a.49.49,0,0,0,.06-.52.5.5,0,0,0-.45-.28h-7a4.45,4.45,0,0,0-8.09-2,2.41,2.41,0,0,0-.21-.24,3.33,3.33,0,0,0-.56-.49.72.72,0,0,1,.49-.13.47.47,0,0,0,.47-.17.49.49,0,0,0,.06-.52,3,3,0,0,0-.7-.89,2,2,0,0,0-2.24-.25,2.15,2.15,0,0,0-.55.38,1.94,1.94,0,0,0-.54-.38,2,2,0,0,0-2.24.25,2.84,2.84,0,0,0-.7.89.48.48,0,0,0,.06.51.48.48,0,0,0,.48.18.71.71,0,0,1,.47.13,3.24,3.24,0,0,0-1.4,2.73,6.79,6.79,0,0,0,1.17,3.11c.5.77,1.51,2.07,2.7,2.07h0a2.54,2.54,0,0,0,1.7-.84l3.15,3.93h0l2.45,3.07v6.42l-2.56,1.07a.82.82,0,0,0-.49.93.81.81,0,0,0,.81.66h7.46a.83.83,0,0,0,.32-1.59l-2.57-1.07v-6.4Z"/></clipPath><clipPath id="clip-path-4"><path class="cls-1" d="M180.14,302.86a.7.7,0,0,0-.47-.19.67.67,0,0,0-.67.66.68.68,0,0,0,.67.67.67.67,0,0,0,.66-.67A.7.7,0,0,0,180.14,302.86Z"/></clipPath><clipPath id="clip-path-5"><path class="cls-1" d="M305,308.48a1.1,1.1,0,0,1-.48.9l-.07,0a1,1,0,0,1-.47.15h-.07a1.08,1.08,0,0,1-1.08-1.09v-.22a.66.66,0,0,0-1.31,0s0,.05,0,.08a1.3,1.3,0,0,1-1,1.21H300a1.3,1.3,0,0,1-1-1.21.19.19,0,0,0,0-.08.65.65,0,0,0-1.3,0,.19.19,0,0,0,0,.08,1.3,1.3,0,0,1-1,1.21h-.51a1.3,1.3,0,0,1-1-1.21s0-.06,0-.08a.65.65,0,0,0-.65-.64.64.64,0,0,0-.65.64.19.19,0,0,0,0,.08,1.31,1.31,0,0,1-1.05,1.21h-.5a1.3,1.3,0,0,1-1-1.21.25.25,0,0,1,0-.08.66.66,0,0,0-.66-.64.65.65,0,0,0-.65.65v.22a1.09,1.09,0,0,1-1.09,1.09h-.07a1,1,0,0,1-.47-.15l-.06,0a1.1,1.1,0,0,1-.48-.9v-2H305Zm-.87,10.22h-1.3v-6.31a.66.66,0,0,0-.66-.65h-3.91a.65.65,0,0,0-.65.65v6.31h-9.13v-7.84h.61l.12,0h0a2.28,2.28,0,0,0,.8-.34h0l.09-.06h0l.08-.06,0,0,.06-.06,0,0,.06-.05,0,0,.05-.05,0,0a2.65,2.65,0,0,0,1.76.82h.14a2.59,2.59,0,0,0,2-.89,2.59,2.59,0,0,0,3.91,0,2.59,2.59,0,0,0,2,.89h.14a2.61,2.61,0,0,0,1.75-.82l0,0,.06.06,0,0,.06.06,0,0,.06.05,0,0,.07.06,0,0,.08,0,0,0,.09,0h0l.09,0h0l.1,0h0l.1.05h0l.1,0h0l.12,0h0l.1,0h0l.1,0h.61Zm-2.61,0h-2.61V313h2.61Zm-12.86-14.79H304l.66,1.31H288Zm.25-2.61h14.78v1.31H288.94Zm17.39,4.57v-.08s0,0,0,0h0a.43.43,0,0,0,0-.05v-.08l0,0L305,303.11v-2a1.09,1.09,0,0,0-1.09-1.09H288.72a1.09,1.09,0,0,0-1.08,1.09v2l-1.24,2.47v0h0s0,0,0,.05h0s0,0,0,.06h0a.06.06,0,0,0,0,0v0a.13.13,0,0,0,0,.06h0v2.61a2.39,2.39,0,0,0,.87,1.84v9a.65.65,0,0,0,.66.65h16.95a.65.65,0,0,0,.65-.65v-9a2.39,2.39,0,0,0,.87-1.84v-2.61Z"/></clipPath><clipPath id="clip-path-6"><path class="cls-1" d="M294.33,316.1h-4v-2.87h4ZM295,312h-5.33a.65.65,0,0,0-.67.62v4.1a.64.64,0,0,0,.67.61H295a.64.64,0,0,0,.67-.61v-4.1A.65.65,0,0,0,295,312Z"/></clipPath></defs><path class="cls-2" d="M-198.84,36.9h-1.7a4.47,4.47,0,0,0,1.1-1.4l.05-.11v-.68h3.24A2.75,2.75,0,0,1-198.84,36.9Zm-5.48,0h-1.94a3.4,3.4,0,0,1-3-1.78v-5.4c.62.3,1.27.69,1.91,1.07,1.48.89,2.88,1.73,4.12,1.73a6.63,6.63,0,0,0,2.75-.68v3.28a3.4,3.4,0,0,1-3,1.78Zm-19.2,0V34.5a20.85,20.85,0,0,0-1.1-6.69,5.62,5.62,0,0,1,.56-.25l2.74-1.07v.41a1.78,1.78,0,0,0,1.44,1.74,13.57,13.57,0,0,0,3.11,4.81l.38.39.39-.39a13.79,13.79,0,0,0,3.11-4.81,1.78,1.78,0,0,0,1.44-1.74v-.41l1.1.43v8.47l0,.11a4.47,4.47,0,0,0,1.1,1.4Zm-4.38-3.72a6,6,0,0,1,2.33-4.77,20,20,0,0,1,1,6.09v2.4h-3.29Zm7.67-7.11a.68.68,0,0,1,.69-.68.7.7,0,0,1,.41.14l1.11.84s0,.08,0,.11,0,.08,0,.12l-1.11.84a.7.7,0,0,1-.41.14.69.69,0,0,1-.69-.68Zm3.68-1.8.16,0,.16,0a8.52,8.52,0,0,0,1.52-.63,2.81,2.81,0,0,0,.34,1.06l-.84.64a1.62,1.62,0,0,0-1.18-.5,1.64,1.64,0,0,0-1.18.5l-.84-.64a2.66,2.66,0,0,0,.35-1.06A8.74,8.74,0,0,0-216.55,24.27Zm-4.77-7.9V14.23a1.63,1.63,0,0,1,.48-1.16,1.62,1.62,0,0,1,1.15-.48,1.89,1.89,0,0,1,.56.1,20.92,20.92,0,0,0,6.92,1.18h.21a.55.55,0,0,1,.55.55v2a7.1,7.1,0,0,1-4.94,6.8A7.1,7.1,0,0,1-221.32,16.37Zm-.55,3a1.64,1.64,0,0,1-1.65-1.64,1.63,1.63,0,0,1,1.1-1.54v.2a8.22,8.22,0,0,0,.56,3Zm5.48-14.25a7.13,7.13,0,0,1,7.13,7.13v3.3a2.88,2.88,0,0,0-1.09-.51v-.6A1.65,1.65,0,0,0-212,12.77h-.21a19.78,19.78,0,0,1-6.56-1.11,2.77,2.77,0,0,0-2.85.63,2.76,2.76,0,0,0-.8,1.94V15a2.85,2.85,0,0,0-1.1.51v-3.3A7.13,7.13,0,0,1-216.39,5.1Zm5.49,14.25h0a8.18,8.18,0,0,0,.56-3v-.2a1.64,1.64,0,0,1,1.09,1.54A1.64,1.64,0,0,1-210.9,19.35Zm-6,7.13a.55.55,0,0,1,.55-.54.54.54,0,0,1,.55.54.54.54,0,0,1-.55.55A.55.55,0,0,1-216.94,26.48Zm.55,1.65a1.62,1.62,0,0,0,1.18-.5l.9.68a1.75,1.75,0,0,0,.29.18,12.62,12.62,0,0,1-2.37,3.78,12.59,12.59,0,0,1-2.36-3.78,1.67,1.67,0,0,0,.28-.18l.9-.68A1.64,1.64,0,0,0-216.39,28.13Zm3.84-2.06v.83a.68.68,0,0,1-.68.68.66.66,0,0,1-.41-.14l-1.11-.84s0-.08,0-.12,0-.07,0-.11l1.11-.84a.66.66,0,0,1,.41-.14A.67.67,0,0,1-212.55,26.07Zm12.07,4.25c0,.53-1.61,1.1-2.75,1.1a6,6,0,0,1-2.56-1,4.61,4.61,0,0,1,2.56-1.21C-202.09,29.23-200.48,29.79-200.48,30.32Zm0-4.38v2.87a6.47,6.47,0,0,0-2.75-.68,6,6,0,0,0-3.57,1.71,21.18,21.18,0,0,0-2.46-1.32V25.94Zm-4.39-4.39h8.77V33.61h-3.29V24.84h-5.48Zm1.87-3,1.42-.47V15h2.19v3.14l1.42.47a2.74,2.74,0,0,1,1.77,1.87h-8.57A2.74,2.74,0,0,1-203,18.58Zm.32-5.81h4.39v1.1h-4.39Zm5.05,4.77-.66-.23V15a1.1,1.1,0,0,0,1.1-1.1v-1.1a1.1,1.1,0,0,0-1.1-1.09h-4.39a1.09,1.09,0,0,0-1.09,1.09v1.1a1.09,1.09,0,0,0,1.09,1.1v2.34l-.66.23A3.83,3.83,0,0,0-206,21.18v3.66h-4.38v.9l-1.32-.51a1.76,1.76,0,0,0-1.56-.94h-.1a1.65,1.65,0,0,1-.32-1V23a8,8,0,0,0,2.22-2.51h.53a2.74,2.74,0,0,0,2.74-2.74V12.23A8.24,8.24,0,0,0-216.39,4a8.23,8.23,0,0,0-8.22,8.23v5.48a2.74,2.74,0,0,0,2.74,2.74h.52A8.21,8.21,0,0,0-219.13,23v.38a1.64,1.64,0,0,1-.31,1h-.1a1.76,1.76,0,0,0-1.56.94l-3.35,1.3A7.09,7.09,0,0,0-229,33.18V38h30.16A3.84,3.84,0,0,0-195,34.16v-13A3.82,3.82,0,0,0-197.63,17.54Z"/><g class="cls-4"><rect class="cls-2" x="-296.15" y="-958.2" width="478.13" height="1035.3"/></g><path class="cls-9" d="M20.73,4.88h8.54a1.22,1.22,0,0,0,1.22-1.22V1.22A1.22,1.22,0,0,0,29.27,0H20.73a1.22,1.22,0,0,0-1.22,1.22V3.66A1.22,1.22,0,0,0,20.73,4.88Z"/><path class="cls-9" d="M37.38,20.61l-1.59-1.1H14.21l-1.59,1.1a2.46,2.46,0,0,0-1,2V47.56A2.44,2.44,0,0,0,14,50H36a2.44,2.44,0,0,0,2.43-2.44V22.62A2.46,2.46,0,0,0,37.38,20.61ZM34.76,45.12a1.22,1.22,0,0,1-1.22,1.22H16.46a1.22,1.22,0,0,1-1.22-1.22V28.05a1.22,1.22,0,0,1,1.22-1.22h3.78a4.93,4.93,0,0,1,9.52,0h3.78a1.22,1.22,0,0,1,1.22,1.22Z"/><path class="cls-9" d="M30.12,15.49a4.9,4.9,0,0,1-2.07-4V7.32H22v4.2a4.9,4.9,0,0,1-2.07,4l-2.2,1.58H32.32Z"/><path class="cls-9" d="M27.44,28.05a2.44,2.44,0,1,0-4.88,0,1.22,1.22,0,0,1-1.22,1.22H17.68V43.9H32.32V29.27H28.66A1.22,1.22,0,0,1,27.44,28.05Z"/></svg>