<?xml version="1.0" encoding="utf-8"?>
<!-- Generator: Adobe Illustrator 24.3.0, SVG Export Plug-In . SVG Version: 6.00 Build 0)  -->
<svg version="1.1" id="Capa_1" xmlns="http://www.w3.org/2000/svg" xmlns:xlink="http://www.w3.org/1999/xlink" x="0px" y="0px"
	 viewBox="0 0 50 50" style="enable-background:new 0 0 50 50;" xml:space="preserve">
<style type="text/css">
	.st0{fill:#15540E;}
</style>
<path class="st0" d="M32.7,17c0,4.4-3.6,8-8,8s-8-3.6-8-8s3.6-8,8-8c4.4,0,8,3.5,8,7.8C32.7,16.9,32.7,16.9,32.7,17z M7,35.2
	C5.2,32.1,4.3,28.6,4.2,25c0-11.3,9.1-20.5,20.4-20.6s20.5,9.1,20.6,20.4c0,3.6-0.9,7.2-2.7,10.3c0.9,1.7,1.5,3.5,1.8,5.3
	C53,29.8,51.2,14,40.5,5.4c-4.5-3.6-10-5.5-15.7-5.5C10.9-0.1-0.3,11-0.3,24.8c0,0.1,0,0.1,0,0.2c0,5.7,1.9,11.2,5.5,15.6
	C5.5,38.7,6.2,36.9,7,35.2z M24.7,50c5.8,0,11.4-2,15.9-5.7c0-8.8-7.1-15.9-15.9-15.9c-8.8,0-15.9,7.1-15.9,15.9
	C13.3,48,18.9,50,24.7,50z"/>
</svg>
