<svg id="Capa_1" data-name="Capa 1" xmlns="http://www.w3.org/2000/svg" xmlns:xlink="http://www.w3.org/1999/xlink" viewBox="0 0 50 50"><defs><style>.cls-1{fill:#51c57f;}.cls-2{clip-path:url(#clip-path);}.cls-3{fill:#fff;}</style><clipPath id="clip-path"><path class="cls-1" d="M-48.84,186.9h-1.7a4.47,4.47,0,0,0,1.1-1.4l0-.11v-.68h3.24A2.75,2.75,0,0,1-48.84,186.9Zm-5.48,0h-1.94a3.4,3.4,0,0,1-3-1.78v-5.4c.62.3,1.27.69,1.91,1.07,1.48.89,2.88,1.73,4.12,1.73a6.63,6.63,0,0,0,2.75-.68v3.28a3.4,3.4,0,0,1-3,1.78Zm-19.2,0v-2.4a20.85,20.85,0,0,0-1.1-6.69,5.62,5.62,0,0,1,.56-.25l2.74-1.07v.41a1.78,1.78,0,0,0,1.44,1.74,13.57,13.57,0,0,0,3.11,4.81l.38.39.39-.39a13.79,13.79,0,0,0,3.11-4.81,1.78,1.78,0,0,0,1.44-1.74v-.41l1.1.43v8.47l.05.11a4.47,4.47,0,0,0,1.1,1.4Zm-4.38-3.72a6,6,0,0,1,2.33-4.77,20,20,0,0,1,1,6.09v2.4H-77.9Zm7.67-7.11a.68.68,0,0,1,.69-.68.7.7,0,0,1,.41.14l1.11.84s0,.08,0,.11,0,.08,0,.12l-1.11.84a.7.7,0,0,1-.41.14.69.69,0,0,1-.69-.68Zm3.68-1.8.16,0,.16,0a8.52,8.52,0,0,0,1.52-.63,2.81,2.81,0,0,0,.34,1.06l-.84.64a1.62,1.62,0,0,0-1.18-.5,1.64,1.64,0,0,0-1.18.5l-.84-.64a2.66,2.66,0,0,0,.35-1.06A8.74,8.74,0,0,0-66.55,174.27Zm-4.77-7.9v-2.14a1.63,1.63,0,0,1,.48-1.16,1.62,1.62,0,0,1,1.15-.48,1.89,1.89,0,0,1,.56.1,20.92,20.92,0,0,0,6.92,1.18H-62a.55.55,0,0,1,.55.55v2a7.1,7.1,0,0,1-4.94,6.8A7.1,7.1,0,0,1-71.32,166.37Zm-.55,3a1.64,1.64,0,0,1-1.65-1.64,1.63,1.63,0,0,1,1.1-1.54v.2a8.22,8.22,0,0,0,.56,3Zm5.48-14.25a7.13,7.13,0,0,1,7.13,7.13v3.3a2.88,2.88,0,0,0-1.09-.51v-.6A1.65,1.65,0,0,0-62,162.77h-.21a19.78,19.78,0,0,1-6.56-1.11,2.77,2.77,0,0,0-2.85.63,2.76,2.76,0,0,0-.8,1.94V165a2.85,2.85,0,0,0-1.1.51v-3.3A7.13,7.13,0,0,1-66.39,155.1Zm5.49,14.25h0a8.18,8.18,0,0,0,.56-3v-.2a1.64,1.64,0,0,1,1.09,1.54A1.64,1.64,0,0,1-60.9,169.35Zm-6,7.13a.55.55,0,0,1,.55-.54.54.54,0,0,1,.55.54.54.54,0,0,1-.55.55A.55.55,0,0,1-66.94,176.48Zm.55,1.65a1.62,1.62,0,0,0,1.18-.5l.9.68a1.75,1.75,0,0,0,.29.18,12.62,12.62,0,0,1-2.37,3.78,12.59,12.59,0,0,1-2.36-3.78,1.67,1.67,0,0,0,.28-.18l.9-.68A1.64,1.64,0,0,0-66.39,178.13Zm3.84-2.06v.83a.68.68,0,0,1-.68.68.66.66,0,0,1-.41-.14l-1.11-.84s0-.08,0-.12,0-.07,0-.11l1.11-.84a.66.66,0,0,1,.41-.14A.67.67,0,0,1-62.55,176.07Zm12.07,4.25c0,.53-1.61,1.1-2.75,1.1a6,6,0,0,1-2.56-1,4.61,4.61,0,0,1,2.56-1.21C-52.09,179.23-50.48,179.79-50.48,180.32Zm0-4.38v2.87a6.47,6.47,0,0,0-2.75-.68,6,6,0,0,0-3.57,1.71,21.18,21.18,0,0,0-2.46-1.32v-2.58Zm-4.39-4.39h8.77v12.06h-3.29v-8.77h-5.48Zm1.87-3,1.42-.47V165h2.19v3.14l1.42.47a2.74,2.74,0,0,1,1.77,1.87h-8.57A2.74,2.74,0,0,1-53,168.58Zm.32-5.81h4.39v1.1h-4.39Zm5,4.77-.66-.23V165a1.1,1.1,0,0,0,1.1-1.1v-1.1a1.1,1.1,0,0,0-1.1-1.09h-4.39a1.09,1.09,0,0,0-1.09,1.09v1.1a1.09,1.09,0,0,0,1.09,1.1v2.34l-.66.23A3.83,3.83,0,0,0-56,171.18v3.66h-4.38v.9l-1.32-.51a1.76,1.76,0,0,0-1.56-.94h-.1a1.65,1.65,0,0,1-.32-1V173a8,8,0,0,0,2.22-2.51h.53a2.74,2.74,0,0,0,2.74-2.74v-5.48A8.24,8.24,0,0,0-66.39,154a8.23,8.23,0,0,0-8.22,8.23v5.48a2.74,2.74,0,0,0,2.74,2.74h.52A8.21,8.21,0,0,0-69.13,173v.38a1.64,1.64,0,0,1-.31,1h-.1a1.76,1.76,0,0,0-1.56.94l-3.35,1.3A7.09,7.09,0,0,0-79,183.18V188h30.16A3.84,3.84,0,0,0-45,184.16v-13A3.82,3.82,0,0,0-47.63,167.54Z"/></clipPath></defs><path class="cls-1" d="M-48.84,186.9h-1.7a4.47,4.47,0,0,0,1.1-1.4l0-.11v-.68h3.24A2.75,2.75,0,0,1-48.84,186.9Zm-5.48,0h-1.94a3.4,3.4,0,0,1-3-1.78v-5.4c.62.3,1.27.69,1.91,1.07,1.48.89,2.88,1.73,4.12,1.73a6.63,6.63,0,0,0,2.75-.68v3.28a3.4,3.4,0,0,1-3,1.78Zm-19.2,0v-2.4a20.85,20.85,0,0,0-1.1-6.69,5.62,5.62,0,0,1,.56-.25l2.74-1.07v.41a1.78,1.78,0,0,0,1.44,1.74,13.57,13.57,0,0,0,3.11,4.81l.38.39.39-.39a13.79,13.79,0,0,0,3.11-4.81,1.78,1.78,0,0,0,1.44-1.74v-.41l1.1.43v8.47l.05.11a4.47,4.47,0,0,0,1.1,1.4Zm-4.38-3.72a6,6,0,0,1,2.33-4.77,20,20,0,0,1,1,6.09v2.4H-77.9Zm7.67-7.11a.68.68,0,0,1,.69-.68.7.7,0,0,1,.41.14l1.11.84s0,.08,0,.11,0,.08,0,.12l-1.11.84a.7.7,0,0,1-.41.14.69.69,0,0,1-.69-.68Zm3.68-1.8.16,0,.16,0a8.52,8.52,0,0,0,1.52-.63,2.81,2.81,0,0,0,.34,1.06l-.84.64a1.62,1.62,0,0,0-1.18-.5,1.64,1.64,0,0,0-1.18.5l-.84-.64a2.66,2.66,0,0,0,.35-1.06A8.74,8.74,0,0,0-66.55,174.27Zm-4.77-7.9v-2.14a1.63,1.63,0,0,1,.48-1.16,1.62,1.62,0,0,1,1.15-.48,1.89,1.89,0,0,1,.56.1,20.92,20.92,0,0,0,6.92,1.18H-62a.55.55,0,0,1,.55.55v2a7.1,7.1,0,0,1-4.94,6.8A7.1,7.1,0,0,1-71.32,166.37Zm-.55,3a1.64,1.64,0,0,1-1.65-1.64,1.63,1.63,0,0,1,1.1-1.54v.2a8.22,8.22,0,0,0,.56,3Zm5.48-14.25a7.13,7.13,0,0,1,7.13,7.13v3.3a2.88,2.88,0,0,0-1.09-.51v-.6A1.65,1.65,0,0,0-62,162.77h-.21a19.78,19.78,0,0,1-6.56-1.11,2.77,2.77,0,0,0-2.85.63,2.76,2.76,0,0,0-.8,1.94V165a2.85,2.85,0,0,0-1.1.51v-3.3A7.13,7.13,0,0,1-66.39,155.1Zm5.49,14.25h0a8.18,8.18,0,0,0,.56-3v-.2a1.64,1.64,0,0,1,1.09,1.54A1.64,1.64,0,0,1-60.9,169.35Zm-6,7.13a.55.55,0,0,1,.55-.54.54.54,0,0,1,.55.54.54.54,0,0,1-.55.55A.55.55,0,0,1-66.94,176.48Zm.55,1.65a1.62,1.62,0,0,0,1.18-.5l.9.68a1.75,1.75,0,0,0,.29.18,12.62,12.62,0,0,1-2.37,3.78,12.59,12.59,0,0,1-2.36-3.78,1.67,1.67,0,0,0,.28-.18l.9-.68A1.64,1.64,0,0,0-66.39,178.13Zm3.84-2.06v.83a.68.68,0,0,1-.68.68.66.66,0,0,1-.41-.14l-1.11-.84s0-.08,0-.12,0-.07,0-.11l1.11-.84a.66.66,0,0,1,.41-.14A.67.67,0,0,1-62.55,176.07Zm12.07,4.25c0,.53-1.61,1.1-2.75,1.1a6,6,0,0,1-2.56-1,4.61,4.61,0,0,1,2.56-1.21C-52.09,179.23-50.48,179.79-50.48,180.32Zm0-4.38v2.87a6.47,6.47,0,0,0-2.75-.68,6,6,0,0,0-3.57,1.71,21.18,21.18,0,0,0-2.46-1.32v-2.58Zm-4.39-4.39h8.77v12.06h-3.29v-8.77h-5.48Zm1.87-3,1.42-.47V165h2.19v3.14l1.42.47a2.74,2.74,0,0,1,1.77,1.87h-8.57A2.74,2.74,0,0,1-53,168.58Zm.32-5.81h4.39v1.1h-4.39Zm5,4.77-.66-.23V165a1.1,1.1,0,0,0,1.1-1.1v-1.1a1.1,1.1,0,0,0-1.1-1.09h-4.39a1.09,1.09,0,0,0-1.09,1.09v1.1a1.09,1.09,0,0,0,1.09,1.1v2.34l-.66.23A3.83,3.83,0,0,0-56,171.18v3.66h-4.38v.9l-1.32-.51a1.76,1.76,0,0,0-1.56-.94h-.1a1.65,1.65,0,0,1-.32-1V173a8,8,0,0,0,2.22-2.51h.53a2.74,2.74,0,0,0,2.74-2.74v-5.48A8.24,8.24,0,0,0-66.39,154a8.23,8.23,0,0,0-8.22,8.23v5.48a2.74,2.74,0,0,0,2.74,2.74h.52A8.21,8.21,0,0,0-69.13,173v.38a1.64,1.64,0,0,1-.31,1h-.1a1.76,1.76,0,0,0-1.56.94l-3.35,1.3A7.09,7.09,0,0,0-79,183.18V188h30.16A3.84,3.84,0,0,0-45,184.16v-13A3.82,3.82,0,0,0-47.63,167.54Z"/><g class="cls-2"><rect class="cls-1" x="-146.15" y="-808.2" width="478.13" height="1035.3"/></g><path class="cls-3" d="M36,15.1V45.9H4.2a1.12,1.12,0,0,1-1.2-1,1.41,1.41,0,0,1,0-.2V15.1Z"/><path class="cls-3" d="M47,5.71V33.63a1.52,1.52,0,0,1-.34,1Q42.47,39.82,38.3,45l-.11.13V14.61a.33.33,0,0,1,.12-.28l8.56-8.5Z"/><path class="cls-3" d="M30.19,4.1,28.76,5.35l-8.45,7.44a.46.46,0,0,1-.25.1H3.75l.12-.1,11-8.42a1.26,1.26,0,0,1,.81-.27h14.5Z"/><path class="cls-3" d="M45.47,4.14l-.13.11-8.55,8.51a.47.47,0,0,1-.33.14H23.52l.84-.76,9-7.95a.38.38,0,0,1,.25-.09H45.45Z"/></svg>