<?xml version="1.0" encoding="utf-8"?>
<!-- Generator: Adobe Illustrator 24.3.0, SVG Export Plug-In . SVG Version: 6.00 Build 0)  -->
<svg version="1.1" id="Capa_1" xmlns="http://www.w3.org/2000/svg" xmlns:xlink="http://www.w3.org/1999/xlink" x="0px" y="0px"
	 viewBox="0 0 50 50" style="enable-background:new 0 0 50 50;" xml:space="preserve">
<style type="text/css">
	.st0{fill:#15540E;}
</style>
<path class="st0" d="M36,15.1v30.8H4.2c-0.6,0-1.1-0.4-1.2-1c0-0.1,0-0.1,0-0.2V15.1H36z"/>
<path class="st0" d="M47,5.7v27.9c0,0.4-0.1,0.7-0.3,1c-2.8,3.5-5.6,6.9-8.4,10.4l-0.1,0.1V14.6c0-0.1,0-0.2,0.1-0.3l8.6-8.5L47,5.7
	z"/>
<path class="st0" d="M30.2,4.1l-1.4,1.2l-8.4,7.4c-0.1,0.1-0.2,0.1-0.2,0.1H3.8l0.1-0.1l11-8.4c0.2-0.2,0.5-0.3,0.8-0.3H30.2
	L30.2,4.1z"/>
<path class="st0" d="M45.5,4.1l-0.1,0.1l-8.5,8.5c-0.1,0.1-0.2,0.1-0.3,0.1H23.5l0.8-0.8l9-7.9c0.1-0.1,0.2-0.1,0.2-0.1L45.5,4.1
	L45.5,4.1z"/>
</svg>
