<?xml version="1.0" encoding="utf-8"?>
<!-- Generator: Adobe Illustrator 24.3.0, SVG Export Plug-In . SVG Version: 6.00 Build 0)  -->
<svg version="1.1" id="Capa_1" xmlns="http://www.w3.org/2000/svg" xmlns:xlink="http://www.w3.org/1999/xlink" x="0px" y="0px"
	 viewBox="0 0 50 50" style="enable-background:new 0 0 50 50;" xml:space="preserve">
<style type="text/css">
	.st0{fill:#15540E;}
</style>
<path class="st0" d="M17.1,13.9l0.6,4.7l0.2,1.4c0.6,4.7,3.9,8.6,8.4,10.1c1.4,0.4,2.3,1.7,2.3,3.1v9.4c0,1.5-0.6,2.9-1.6,4
	c-1.1,1.1-2.5,1.7-4,1.7c-0.6,0-1.3,0.9-1.5,1.8h17.1c0-0.5-0.2-0.9-0.4-1.3c-0.3-0.3-0.7-0.4-1.1-0.4c-3.1,0-5.6-2.5-5.6-5.6v-9.5
	c0-1.4,0.9-2.7,2.3-3.1c4.5-1.5,7.8-5.4,8.4-10.1l0.8-6L17.1,13.9z"/>
<polygon class="st0" points="43.4,9.9 26,9.9 16.6,9.9 17,13 43,13 "/>
<path class="st0" d="M16,18.9c0.2,0,0.5,0,0.7,0l-1.2-9.4c0-0.1,0-0.3,0.1-0.4C15.8,9,15.9,9,16,9h9.4c-0.3-5.2-4.7-9.2-9.9-9
	s-9.2,4.7-9,9.9C6.9,15,11,18.9,16,18.9L16,18.9z"/>
</svg>
